<?xml version="1.0" encoding="UTF-8"?>
<svg width="15px" height="13px" viewBox="0 0 15 13" version="1.1" xmlns="http://www.w3.org/2000/svg" xmlns:xlink="http://www.w3.org/1999/xlink">
    <!-- Generator: Sketch 51.2 (57519) - http://www.bohemiancoding.com/sketch -->
    <title>Combined Shape</title>
    <desc>Created with Sketch.</desc>
    <defs></defs>
    <g id="Page-1" stroke="none" stroke-width="1" fill="none" fill-rule="evenodd">
        <g id="交易明細" transform="translate(-22.000000, -693.000000)" fill="#34B25C" fill-rule="nonzero">
            <g id="Group-2" transform="translate(22.000000, 688.000000)">
                <path d="M5.81730135,5.93695408 C6.17548972,5.35408071 6.8126509,5 7.49967463,5 C8.18669836,5 8.82385954,5.35408071 9.18204791,5.93695408 L14.7366056,15.0899105 C15.0858324,15.6868585 15.0879175,16.4218861 14.7420829,17.020755 C14.3962483,17.619624 13.754438,17.9923849 13.0489104,18 L1.9432383,17.9999609 C1.24491122,17.9923849 0.603100923,17.619624 0.257266341,17.020755 C-0.0885682406,16.4218861 -0.0864831555,15.6868585 0.268065618,15.0809794 L5.81730135,5.93695408 Z M1.39747461,15.7366665 C1.28106567,15.9356491 1.28037064,16.1806583 1.39564884,16.3802813 C1.51092703,16.5799043 1.7248638,16.7041579 1.9504389,16.7066442 L13.0417098,16.7066833 C13.2744855,16.7041579 13.4884222,16.5799043 13.6037004,16.3802813 C13.7189786,16.1806583 13.7182836,15.9356491 13.6071966,15.7455975 L8.05983951,6.6046484 C7.9410696,6.41138268 7.72868254,6.29335577 7.49967463,6.29335577 C7.27116884,6.29335577 7.05921109,6.41086568 6.94029233,6.60337824 L1.39747461,15.7366665 Z M6.84451103,9.59318748 C6.84451103,9.23603714 7.13783776,8.94650959 7.49967463,8.94650959 C7.8615115,8.94650959 8.15483824,9.23603714 8.15483824,9.59318748 L8.15483824,12.179899 C8.15483824,12.5370494 7.8615115,12.8265769 7.49967463,12.8265769 C7.13783776,12.8265769 6.84451103,12.5370494 6.84451103,12.179899 L6.84451103,9.59318748 Z M7.036404,14.577203 C6.7805467,14.3246596 6.7805467,13.9152058 7.036404,13.6626624 C7.29226131,13.4101189 7.70708796,13.4101189 7.96294526,13.6626624 C8.21880256,13.9152058 8.21880256,14.3246596 7.96294526,14.577203 C7.70708796,14.8297464 7.29226131,14.8297464 7.036404,14.577203 Z" id="Combined-Shape"></path>
            </g>
        </g>
    </g>
</svg>