<svg xmlns="http://www.w3.org/2000/svg" xmlns:xlink="http://www.w3.org/1999/xlink" width="140" height="140" viewBox="0 0 140 140">
    <defs>
        <path id="a" d="M0 0h142v142H0z"/>
    </defs>
    <g fill="none" fill-rule="evenodd">
        <g transform="translate(-1 -1)">
            <mask id="b" fill="#fff">
                <use xlink:href="#a"/>
            </mask>
            <g mask="url(#b)">
                <g fill="#ADADAD" transform="rotate(-45 68.867 48.999)">
                    <path fill-rule="nonzero" d="M61.189 89.931c-2.114 2.126-4.89 3.453-8.515 4.207-2.555.531-5.516.801-9.633.903.914-1.185.16-2.063-.457-3.142 9.192-.202 14.459-1.283 17.446-5.48.11 1.128.331 2.037.67 2.725.183.373.338.631.489.787zm5.556-18.843c-.72-.366-1.378-.272-1.378-.272s-1.313-.573-1.753.13a3.584 3.584 0 0 1-.029.044c.161-3.194.215-6.87.215-11.099 0-29.305-13.876-47.282-25.31-47.282-11.432 0-25.308 17.977-25.308 47.282 0 4.068.05 7.623.197 10.73-.9-1.084-1.646-1.373-1.646-1.373s-.764-.433-1.577-.061c-.097-2.724-.138-5.8-.138-9.296 0-14.304 3.215-26.92 8.816-36.249C24.16 14.774 31.376 9.457 38.491 9.457s14.332 5.317 19.657 14.185c5.601 9.329 8.816 21.945 8.816 36.25 0 4.333-.063 8.023-.219 11.196zM34.498 95.054c-4.41-.091-7.521-.361-10.19-.916-3.9-.811-6.817-2.285-8.984-4.704.237-.198.492-.494.826-.851.51-.545.779-1.105.85-2.097 2.96 4.092 8.131 5.186 17.078 5.406-.355.98.175 1.929.175 1.929s0 .566.245 1.233z"/>
                    <path fill-rule="nonzero" d="M38.49 53.062c-5.532 0-10.017-4.47-10.017-9.982 0-5.513 4.485-9.982 10.018-9.982s10.018 4.469 10.018 9.982c0 5.513-4.485 9.982-10.018 9.982zm0-3.153c3.787 0 6.855-3.057 6.855-6.83 0-3.771-3.068-6.829-6.854-6.829s-6.855 3.058-6.855 6.83c0 3.772 3.07 6.83 6.855 6.83z"/>
                    <path d="M25.31 107.165a1.57 1.57 0 0 1 1.58-1.567c.875 0 1.583.696 1.583 1.567v10.525a1.57 1.57 0 0 1-1.582 1.567 1.571 1.571 0 0 1-1.582-1.567v-10.525zm23.2 0a1.57 1.57 0 0 1 1.58-1.567c.875 0 1.583.696 1.583 1.567v10.525a1.57 1.57 0 0 1-1.582 1.567 1.571 1.571 0 0 1-1.582-1.567v-10.525zm-11.6 2.64a1.58 1.58 0 1 1 3.164 0l-.001 15.753c0 .872-.702 1.58-1.582 1.58a1.58 1.58 0 0 1-1.582-1.58v-15.753z"/>
                    <rect width="3.164" height="12.609" x="36.909" rx="1.576"/>
                    <path fill-rule="nonzero" d="M38.49 104.547c-1.65 0-3.008-.849-3.904-2.19-.597-.893-.992-1.989-1.274-3.33-.438-2.081-.621-4.894-.621-8.665 0-3.793.185-6.838.606-9.115.265-1.436.628-2.607 1.16-3.555.858-1.531 2.216-2.565 4.034-2.565 1.818 0 3.176 1.034 4.034 2.565.531.948.894 2.12 1.16 3.555.42 2.277.606 5.322.606 9.115 0 3.771-.184 6.584-.621 8.665-.282 1.341-.677 2.437-1.274 3.33-.896 1.341-2.254 2.19-3.905 2.19zm0-3.152c2.04 0 2.637-4.36 2.637-11.033 0-6.673-.598-12.083-2.636-12.083-2.039 0-2.636 5.41-2.636 12.083 0 6.674.597 11.033 2.636 11.033zM13.228 93.72c-3.29 3.051-5.324 4.37-7.862 4.043-2.006-.259-3.4-1.64-4.115-3.634-.514-1.433-.74-3.309-.74-5.767 0-4.472 1.24-9.332 3.232-13.58 2.13-4.545 4.48-7.536 7.33-7.536 2.448 0 4.414 1.359 5.513 3.89.922 2.124 1.341 5.25 1.341 9.77 0 1.01.03 4.189.024 4.793-.017 1.493-.12 2.407-.465 3.337-.392 1.052-.97 1.78-1.917 2.63.004-.003-1.675 1.437-2.341 2.055zm-2.155-2.307c4.27-3.96 3.69-1.803 3.69-10.507 0-8.705-1.652-10.507-3.69-10.507-2.039 0-7.399 9.259-7.399 17.963 0 8.705 3.128 7.01 7.399 3.051zM63.61 95.578c-.667-.618-2.346-2.058-2.342-2.054-.946-.85-1.524-1.579-1.916-2.63-.346-.93-.449-1.845-.466-3.338-.006-.604.024-3.783.024-4.793 0-4.519.42-7.645 1.341-9.769 1.1-2.532 3.065-3.89 5.514-3.89 2.849 0 5.2 2.99 7.33 7.536 1.99 4.248 3.232 9.107 3.232 13.58 0 2.458-.226 4.334-.74 5.767-.715 1.993-2.11 3.375-4.116 3.633-2.538.327-4.572-.991-7.862-4.042zm2.155-2.308c4.27 3.96 7.398 5.654 7.398-3.05 0-8.705-5.36-17.964-7.398-17.964-2.039 0-3.691 1.803-3.691 10.507 0 8.705-.58 6.548 3.69 10.507z"/>
                </g>
                <path fill="#007BCA" d="M110.354 57.178l-3.411 3.411a3.154 3.154 0 0 1-4.458-.008l-3.395-3.395c-10.24-1.409-18.126-10.19-18.126-20.816 0-11.606 9.403-21.015 21.021-21.015h5.412c11.61 0 21.021 9.406 21.021 21.015 0 10.603-7.849 19.372-18.064 20.808zm4.882-18.182a2.632 2.632 0 0 0 2.637-2.626c0-1.451-1.18-2.627-2.637-2.627a2.632 2.632 0 0 0-2.636 2.627c0 1.45 1.18 2.626 2.636 2.626zm-10.545 0a2.632 2.632 0 0 0 2.636-2.626c0-1.451-1.18-2.627-2.636-2.627a2.632 2.632 0 0 0-2.636 2.627c0 1.45 1.18 2.626 2.636 2.626zm-10.546 0a2.632 2.632 0 0 0 2.637-2.626c0-1.451-1.18-2.627-2.637-2.627a2.632 2.632 0 0 0-2.636 2.627c0 1.45 1.18 2.626 2.636 2.626z"/>
            </g>
        </g>
    </g>
</svg>
