<svg xmlns="http://www.w3.org/2000/svg" xmlns:xlink="http://www.w3.org/1999/xlink" width="140" height="140" viewBox="0 0 140 140">
    <defs>
        <path id="a" d="M0 0h142v142H0z"/>
    </defs>
    <g fill="none" fill-rule="evenodd" transform="translate(-1 -1)">
        <mask id="b" fill="#fff">
            <use xlink:href="#a"/>
        </mask>
        <g mask="url(#b)">
            <path fill="#ADADAD" fill-rule="nonzero" d="M88.879 66l-2.481-2.481a1.492 1.492 0 0 1 .006-2.115 1.492 1.492 0 0 1 2.115-.006L91 63.878l2.481-2.48a1.492 1.492 0 0 1 2.115.006c.586.586.592 1.529.006 2.115L93.122 66l2.48 2.481a1.492 1.492 0 0 1-.006 2.115 1.492 1.492 0 0 1-2.115.006L91 68.122l-2.481 2.48a1.492 1.492 0 0 1-2.115-.006 1.492 1.492 0 0 1-.006-2.115L88.878 66zm-44 0l-2.481-2.481a1.492 1.492 0 0 1 .006-2.115 1.492 1.492 0 0 1 2.115-.006L47 63.878l2.481-2.48a1.492 1.492 0 0 1 2.115.006c.586.586.592 1.529.006 2.115L49.122 66l2.48 2.481a1.492 1.492 0 0 1-.006 2.115 1.492 1.492 0 0 1-2.115.006L47 68.122l-2.481 2.48a1.492 1.492 0 0 1-2.115-.006 1.492 1.492 0 0 1-.006-2.115L44.878 66zM116 82a1.5 1.5 0 0 1 3 0v26.998a6.004 6.004 0 0 1-6.001 6.002H79.92l2.122-.879-8.799 8.799a6 6 0 0 1-8.486 0l-8.799-8.799 2.122.879H25A6.002 6.002 0 0 1 19 108.998V31.002A6.004 6.004 0 0 1 25.001 25H113A6.002 6.002 0 0 1 119 31.002V39a1.5 1.5 0 0 1-3 0v-7.998A3.002 3.002 0 0 0 112.999 28H25A3.004 3.004 0 0 0 22 31.002v77.996A3.002 3.002 0 0 0 25.001 112H58.08l8.798 8.799a3 3 0 0 0 4.244 0L79.92 112H113a3.004 3.004 0 0 0 3.001-3.002V82zm-61.5 6c0-.828.674-1.5 1.498-1.5h26.004c.827 0 1.498.666 1.498 1.5 0 .828-.674 1.5-1.498 1.5H55.998A1.495 1.495 0 0 1 54.5 88z"/>
            <path fill="#007BCA" d="M122 77c4.97 0 11-2.065 11-11.177C133 56.71 123 44 122 44s-11 12.71-11 21.823C111 74.935 117.03 77 122 77z"/>
        </g>
    </g>
</svg>
