<svg xmlns="http://www.w3.org/2000/svg" width="14" height="13" viewBox="0 0 14 13">
    <path fill="#007BCA" fill-rule="nonzero" d="M3.828 3.25L7.719.18c.54-.426 1.338-.047 1.338.634v11.372c0 .681-.799 1.06-1.338.634L3.828 9.75H.823A.818.818 0 0 1 0 8.936V4.063c0-.449.369-.812.823-.812h3.005zm7.561.949a.805.805 0 0 1 0-1.15.831.831 0 0 1 1.165.001 4.828 4.828 0 0 1 0 6.892.831.831 0 0 1-1.165 0 .805.805 0 0 1 0-1.149 3.219 3.219 0 0 0 0-4.594zm-6.758.498a.83.83 0 0 1-.514.178h-2.47v3.25h2.47a.83.83 0 0 1 .514.178l2.78 2.193V2.504L4.63 4.697z"/>
</svg>
